<svg width="440" height="99" viewBox="0 0 440 99" fill="none" xmlns="http://www.w3.org/2000/svg">
<path fill-rule="evenodd" clip-rule="evenodd" d="M90.5986 2.23895C92.1575 -0.318585 95.8708 -0.31858 97.4297 2.23896L107.151 18.1887H348C364.569 18.1887 378 31.6201 378 48.1887V68.1887C378 71.0579 377.597 73.8331 376.845 76.4607L377.983 76.5544C381.649 76.8565 385.281 77.4924 388.833 78.4543L400.868 81.7141C406.039 83.1147 411.432 83.5009 416.749 82.8513L431.425 81.0586C435.537 80.5563 439.277 83.4823 439.779 87.5938C440.281 91.7054 437.356 95.4457 433.244 95.9479L418.568 97.7406C411.328 98.625 403.986 98.0993 396.946 96.1925L384.911 92.9327C382.24 92.2092 379.509 91.731 376.751 91.5038L367.759 90.763C362.481 95.3865 355.568 98.1887 348 98.1887H30C13.4315 98.1887 0 84.7572 0 68.1887V48.1887C0 33.4822 10.5821 21.2473 24.5473 18.683L34.5703 2.23901C36.1292 -0.318523 39.8425 -0.318519 41.4014 2.23902L51.1231 18.1887H80.8769L90.5986 2.23895Z" fill="#89837C"/>
<path d="M110.16 43.9208L113.76 41.4408C115.96 43.3208 118.56 46.0008 119.76 47.8808L115.88 50.6008C114.84 48.6808 112.32 45.8808 110.16 43.9208ZM83.96 51.7208H120.08V56.2808H83.96V51.7208ZM83.2 63.0408C88.04 62.3208 95.64 61.0008 102.64 59.7208L103 64.0808C96.52 65.4408 89.56 66.8408 84.4 67.8808L83.2 63.0408ZM91.56 45.2808H96.4V72.3208C96.4 74.9208 95.88 76.2408 94.24 77.0008C92.64 77.7608 90.28 77.9208 87 77.9208C86.8 76.5608 86 74.4008 85.28 73.0408C87.56 73.1608 89.88 73.1608 90.6 73.1208C91.32 73.1208 91.56 72.9208 91.56 72.2408V45.2808ZM99.76 40.6008L103 44.6808C97.8 46.2808 90.96 47.3608 85.16 48.0008C84.92 46.8808 84.32 45.0808 83.76 44.0008C89.4 43.2408 95.64 42.0008 99.76 40.6008ZM103.68 40.6808H108.72C108.44 56.8008 112.04 73.2008 115.68 73.2008C116.52 73.2008 116.96 71.2408 117.2 66.4808C118.2 67.6008 119.84 68.7208 121.12 69.2408C120.36 76.3208 118.84 78.0808 115.2 78.0808C106.92 78.0808 103.8 58.6408 103.68 40.6808ZM114.56 57.6008L118.8 59.4008C114.64 66.8408 108.12 72.8008 100.88 76.6408C100.16 75.4408 98.84 73.8408 97.64 72.7608C104.48 69.6408 111 64.2008 114.56 57.6008ZM147.64 62.0408H184.36V65.9208H147.64V62.0408ZM148.4 41.7608H183.4V45.9208H148.4V41.7608ZM160.96 58.2008L165.68 59.4008C163.12 63.6408 159.72 68.6808 157.28 71.8808L152.64 70.4808C155.12 67.2808 158.64 62.1208 160.96 58.2008ZM172.56 63.4808L177.2 64.6808C173.24 74.1208 165 76.8408 150.16 78.0008C149.84 76.6008 149.12 74.9208 148.36 73.8808C161.84 73.3208 169.36 71.1608 172.56 63.4808ZM155.4 70.8008L157.84 67.3608C167.04 69.2408 177 72.0008 183 74.2008L180.12 78.0808C174.32 75.7208 164.96 72.8408 155.4 70.8008ZM158.92 43.4008H163.44V57.0808H158.92V43.4008ZM168 43.4008H172.52V57.0808H168V43.4008ZM154.72 51.9608V55.7208H177.32V51.9608H154.72ZM150.24 48.2008H182.12V59.4808H150.24V48.2008ZM243.28 48.1208L247.84 49.0408C246.84 52.4008 245.76 56.1608 244.76 58.5608L241.08 57.6408C241.96 55.0808 242.88 51.0408 243.28 48.1208ZM228.04 49.2808L231.88 48.4408C232.76 51.4008 233.52 55.2008 233.72 57.7208L229.64 58.6408C229.56 56.1208 228.84 52.2408 228.04 49.2808ZM227.64 42.3608H248.04V46.8008H227.64V42.3608ZM226.28 59.6808H248.76V64.2408H226.28V59.6808ZM235.12 43.9208H239.84V77.8808H235.12V43.9208ZM213.12 52.6408H225.48V56.2408H213.12V52.6408ZM213.24 41.6008H225.4V45.2408H213.24V41.6008ZM213.12 58.0808H225.48V61.7208H213.12V58.0808ZM211.16 47.0008H226.92V50.8008H211.16V47.0008ZM215.32 63.6408H225.44V75.8008H215.32V72.0008H221.32V67.4408H215.32V63.6408ZM213 63.6408H217.04V77.4008H213V63.6408ZM300.52 44.6808C298.36 48.1208 294.44 52.2808 290.24 54.8408C289.76 53.6808 288.72 51.9608 287.92 50.9208C292.12 48.5608 296.24 44.0008 298.2 40.4008H302.52C305.24 44.4408 309.32 48.4408 313.32 50.4008C312.44 51.5208 311.44 53.2408 310.76 54.5608C306.96 52.2408 302.8 48.0808 300.52 44.6808ZM290.56 57.4008H309.92V61.2408H294.56V77.6808H290.56V57.4008ZM306.88 57.4008H311V73.7608C311 75.4408 310.76 76.4408 309.76 77.0808C308.76 77.7208 307.56 77.7608 305.92 77.7608C305.8 76.7208 305.28 75.1208 304.8 74.1208C305.52 74.1608 306.2 74.1608 306.48 74.1608C306.8 74.1608 306.88 74.0408 306.88 73.6808V57.4008ZM296.48 58.4408H299.6V77.4408H296.48V58.4408ZM301.6 58.4408H304.76V77.4408H301.6V58.4408ZM293.64 51.0808H307.6V55.0008H293.64V51.0808ZM292.44 65.6008H309.52V69.4008H292.44V65.6008ZM276.96 52.6408H288.12V56.2408H276.96V52.6408ZM277.2 41.6008H288V45.2408H277.2V41.6008ZM276.96 58.0808H288.12V61.7208H276.96V58.0808ZM275.16 47.0008H289.44V50.8008H275.16V47.0008ZM279.16 63.6408H288.2V75.7208H279.16V71.9608H284.28V67.4008H279.16V63.6408ZM276.84 63.6408H280.76V77.4008H276.84V63.6408Z" fill="white"/>
</svg>
