<svg width="440" height="99" viewBox="0 0 440 99" fill="none" xmlns="http://www.w3.org/2000/svg">
<path fill-rule="evenodd" clip-rule="evenodd" d="M90.5986 2.23895C92.1575 -0.318585 95.8708 -0.31858 97.4297 2.23896L107.151 18.1887H348C364.569 18.1887 378 31.6201 378 48.1887V68.1887C378 71.0579 377.597 73.8331 376.845 76.4607L377.983 76.5544C381.649 76.8565 385.281 77.4924 388.833 78.4543L400.868 81.7141C406.039 83.1147 411.432 83.5009 416.749 82.8513L431.425 81.0586C435.537 80.5563 439.277 83.4823 439.779 87.5938C440.281 91.7054 437.356 95.4457 433.244 95.9479L418.568 97.7406C411.328 98.625 403.986 98.0993 396.946 96.1925L384.911 92.9327C382.24 92.2092 379.509 91.731 376.751 91.5038L367.759 90.763C362.481 95.3865 355.568 98.1887 348 98.1887H30C13.4315 98.1887 0 84.7572 0 68.1887V48.1887C0 33.4822 10.5821 21.2473 24.5473 18.683L34.5703 2.23901C36.1292 -0.318523 39.8425 -0.318519 41.4014 2.23902L51.1231 18.1887H80.8769L90.5986 2.23895Z" fill="#89837C"/>
<path d="M84.44 43.4008H119.6V47.7208H84.44V43.4008ZM99.32 40.3608H104.28V45.9608H99.32V40.3608ZM85.76 50.8808H116.52V55.0008H90.32V77.8408H85.76V50.8808ZM114.04 50.8808H118.68V72.7208C118.68 75.0408 118.2 76.4008 116.64 77.1208C115.04 77.8408 112.8 77.9608 109.64 77.9608C109.44 76.6808 108.72 74.5608 108.08 73.3608C110.16 73.4808 112.48 73.4808 113.16 73.4408C113.84 73.4408 114.04 73.2408 114.04 72.6808V50.8808ZM95.84 54.4808H100.08C99.76 59.2808 98.4 62.0008 92.04 63.4408C91.68 62.4408 90.68 60.8808 89.84 60.1208C94.8 59.2408 95.64 57.6808 95.84 54.4808ZM103.24 54.4808H107.4V57.5208C107.4 58.4008 107.48 58.4808 108.2 58.4808C108.56 58.4808 109.88 58.4808 110.28 58.4808C110.92 58.4808 111.08 58.2008 111.2 56.2408C111.96 56.8008 113.64 57.3608 114.72 57.6008C114.32 61.0008 113.28 61.9208 110.8 61.9208C110.08 61.9208 108.24 61.9208 107.56 61.9208C104 61.9208 103.24 60.8808 103.24 57.6008V54.4808ZM94.24 63.4408H98.48V76.0408H94.24V63.4408ZM96.88 63.4408H110.04V73.8808H96.88V70.3608H105.72V66.9608H96.88V63.4408ZM91.6 47.6408L96.36 46.8408C97.08 48.1208 97.84 49.8408 98.16 51.0008L93.2 52.0008C92.96 50.8408 92.24 49.0008 91.6 47.6408ZM107.24 46.8008L112.56 47.6008C111.6 49.3608 110.76 50.8008 110.04 51.8808L105.28 51.0808C105.96 49.8408 106.8 48.0408 107.24 46.8008ZM158.92 46.5208V51.9208H173V46.5208H158.92ZM154.28 41.9608H177.92V56.4808H154.28V41.9608ZM148.8 59.8408H164.08V77.6808H159.28V64.4008H153.32V77.9208H148.8V59.8408ZM167.48 59.8408H183.32V77.7208H178.48V64.4008H172.08V77.9208H167.48V59.8408ZM150.8 71.3208H161.28V75.9208H150.8V71.3208ZM169.68 71.3208H180.88V75.9208H169.68V71.3208ZM229.84 45.1608C226.72 50.2808 220.6 55.8008 213.88 59.3608C213.28 58.1608 211.92 56.3608 210.88 55.3608C218 51.9608 224.24 45.5608 227 40.2408H232.2C236.32 47.0008 242.68 52.2808 249.24 54.8008C248 56.0808 246.92 57.7208 246.04 59.2008C239.64 55.9608 233.08 50.3608 229.84 45.1608ZM234.28 55.0008H239.28V77.9208H234.28V55.0008ZM220.48 55.2008H225.4V60.1608C225.4 65.8408 224.6 73.0008 216.72 77.9208C215.88 76.8808 214 75.2808 212.72 74.5208C219.76 70.3208 220.48 64.6808 220.48 60.0408V55.2008ZM294.92 71.9208H308.72V76.1608H294.92V71.9208ZM292.68 60.8808H311.04V77.7208H306.4V65.1208H297.08V77.8808H292.68V60.8808ZM291.28 42.2408H309.6V46.6408H291.28V42.2408ZM307.36 42.2408H311.84C311.84 42.2408 311.8 43.4008 311.76 43.9608C311.56 52.3208 311.28 55.8008 310.28 57.0808C309.44 58.1208 308.56 58.4408 307.28 58.6008C306.2 58.7608 304.36 58.7608 302.4 58.7608C302.28 57.3608 301.76 55.5208 301 54.3208C302.68 54.4808 304.32 54.4808 305.08 54.4808C305.64 54.4808 306.04 54.4008 306.36 54.0408C306.96 53.3608 307.2 50.4808 307.36 42.9208V42.2408ZM297 44.0408H301.72C301.12 50.8008 299.56 56.4408 292.48 59.8008C291.92 58.6808 290.64 57.0008 289.64 56.2008C295.64 53.6008 296.56 49.2008 297 44.0408ZM281.2 40.4008L285.36 41.9608C283.72 45.0008 281.88 48.5608 280.32 50.8008L277.12 49.4008C278.56 47.0408 280.28 43.2008 281.2 40.4008ZM285.8 45.1208L289.68 46.8808C286.8 51.4808 282.88 57.0408 279.84 60.5208L277.08 58.9608C280.04 55.3208 283.72 49.4408 285.8 45.1208ZM275.04 49.8808L277.32 46.6008C279.44 48.4408 281.92 50.9608 282.96 52.8008L280.48 56.5208C279.52 54.6008 277.08 51.8008 275.04 49.8808ZM284.6 54.6808L287.76 53.3608C289.32 56.0408 290.84 59.5608 291.32 61.8808L287.92 63.4008C287.48 61.0808 286.12 57.4408 284.6 54.6808ZM275 58.0008C278.68 57.8808 284.08 57.6808 289.36 57.4408L289.32 61.2408C284.4 61.6008 279.28 61.9208 275.4 62.2008L275 58.0008ZM285.48 64.6408L288.84 63.5608C289.84 65.8408 290.88 68.8408 291.32 70.8408L287.8 72.0808C287.4 70.0808 286.36 67.0008 285.48 64.6408ZM276.72 63.8808L280.68 64.5608C280.28 68.4008 279.4 72.4008 278.24 74.9608C277.4 74.4408 275.6 73.6008 274.6 73.2008C275.76 70.8408 276.4 67.2808 276.72 63.8808ZM281.2 60.1208H285.4V77.9608H281.2V60.1208Z" fill="white"/>
</svg>
