<svg width="440" height="99" viewBox="0 0 440 99" fill="none" xmlns="http://www.w3.org/2000/svg">
<path fill-rule="evenodd" clip-rule="evenodd" d="M90.5986 2.23895C92.1575 -0.318585 95.8708 -0.31858 97.4297 2.23896L107.151 18.1887H348C364.569 18.1887 378 31.6201 378 48.1887V68.1887C378 71.0579 377.597 73.8331 376.845 76.4607L377.983 76.5544C381.649 76.8565 385.281 77.4924 388.833 78.4543L400.868 81.7141C406.039 83.1147 411.432 83.5009 416.749 82.8513L431.425 81.0586C435.537 80.5563 439.277 83.4823 439.779 87.5938C440.281 91.7054 437.356 95.4457 433.244 95.9479L418.568 97.7406C411.328 98.625 403.986 98.0993 396.946 96.1925L384.911 92.9327C382.24 92.2092 379.509 91.731 376.751 91.5038L367.759 90.763C362.481 95.3865 355.568 98.1887 348 98.1887H30C13.4315 98.1887 0 84.7572 0 68.1887V48.1887C0 33.4822 10.5821 21.2473 24.5473 18.683L34.5703 2.23901C36.1292 -0.318523 39.8425 -0.318519 41.4014 2.23902L51.1231 18.1887H80.8769L90.5986 2.23895Z" fill="#89837C"/>
<path d="M84.44 43.4008H119.6V47.7208H84.44V43.4008ZM99.32 40.3608H104.28V45.9608H99.32V40.3608ZM85.76 50.8808H116.52V55.0008H90.32V77.8408H85.76V50.8808ZM114.04 50.8808H118.68V72.7208C118.68 75.0408 118.2 76.4008 116.64 77.1208C115.04 77.8408 112.8 77.9608 109.64 77.9608C109.44 76.6808 108.72 74.5608 108.08 73.3608C110.16 73.4808 112.48 73.4808 113.16 73.4408C113.84 73.4408 114.04 73.2408 114.04 72.6808V50.8808ZM95.84 54.4808H100.08C99.76 59.2808 98.4 62.0008 92.04 63.4408C91.68 62.4408 90.68 60.8808 89.84 60.1208C94.8 59.2408 95.64 57.6808 95.84 54.4808ZM103.24 54.4808H107.4V57.5208C107.4 58.4008 107.48 58.4808 108.2 58.4808C108.56 58.4808 109.88 58.4808 110.28 58.4808C110.92 58.4808 111.08 58.2008 111.2 56.2408C111.96 56.8008 113.64 57.3608 114.72 57.6008C114.32 61.0008 113.28 61.9208 110.8 61.9208C110.08 61.9208 108.24 61.9208 107.56 61.9208C104 61.9208 103.24 60.8808 103.24 57.6008V54.4808ZM94.24 63.4408H98.48V76.0408H94.24V63.4408ZM96.88 63.4408H110.04V73.8808H96.88V70.3608H105.72V66.9608H96.88V63.4408ZM91.6 47.6408L96.36 46.8408C97.08 48.1208 97.84 49.8408 98.16 51.0008L93.2 52.0008C92.96 50.8408 92.24 49.0008 91.6 47.6408ZM107.24 46.8008L112.56 47.6008C111.6 49.3608 110.76 50.8008 110.04 51.8808L105.28 51.0808C105.96 49.8408 106.8 48.0408 107.24 46.8008ZM158.92 46.5208V51.9208H173V46.5208H158.92ZM154.28 41.9608H177.92V56.4808H154.28V41.9608ZM148.8 59.8408H164.08V77.6808H159.28V64.4008H153.32V77.9208H148.8V59.8408ZM167.48 59.8408H183.32V77.7208H178.48V64.4008H172.08V77.9208H167.48V59.8408ZM150.8 71.3208H161.28V75.9208H150.8V71.3208ZM169.68 71.3208H180.88V75.9208H169.68V71.3208ZM243.28 48.1208L247.84 49.0408C246.84 52.4008 245.76 56.1608 244.76 58.5608L241.08 57.6408C241.96 55.0808 242.88 51.0408 243.28 48.1208ZM228.04 49.2808L231.88 48.4408C232.76 51.4008 233.52 55.2008 233.72 57.7208L229.64 58.6408C229.56 56.1208 228.84 52.2408 228.04 49.2808ZM227.64 42.3608H248.04V46.8008H227.64V42.3608ZM226.28 59.6808H248.76V64.2408H226.28V59.6808ZM235.12 43.9208H239.84V77.8808H235.12V43.9208ZM213.12 52.6408H225.48V56.2408H213.12V52.6408ZM213.24 41.6008H225.4V45.2408H213.24V41.6008ZM213.12 58.0808H225.48V61.7208H213.12V58.0808ZM211.16 47.0008H226.92V50.8008H211.16V47.0008ZM215.32 63.6408H225.44V75.8008H215.32V72.0008H221.32V67.4408H215.32V63.6408ZM213 63.6408H217.04V77.4008H213V63.6408ZM300.52 44.6808C298.36 48.1208 294.44 52.2808 290.24 54.8408C289.76 53.6808 288.72 51.9608 287.92 50.9208C292.12 48.5608 296.24 44.0008 298.2 40.4008H302.52C305.24 44.4408 309.32 48.4408 313.32 50.4008C312.44 51.5208 311.44 53.2408 310.76 54.5608C306.96 52.2408 302.8 48.0808 300.52 44.6808ZM290.56 57.4008H309.92V61.2408H294.56V77.6808H290.56V57.4008ZM306.88 57.4008H311V73.7608C311 75.4408 310.76 76.4408 309.76 77.0808C308.76 77.7208 307.56 77.7608 305.92 77.7608C305.8 76.7208 305.28 75.1208 304.8 74.1208C305.52 74.1608 306.2 74.1608 306.48 74.1608C306.8 74.1608 306.88 74.0408 306.88 73.6808V57.4008ZM296.48 58.4408H299.6V77.4408H296.48V58.4408ZM301.6 58.4408H304.76V77.4408H301.6V58.4408ZM293.64 51.0808H307.6V55.0008H293.64V51.0808ZM292.44 65.6008H309.52V69.4008H292.44V65.6008ZM276.96 52.6408H288.12V56.2408H276.96V52.6408ZM277.2 41.6008H288V45.2408H277.2V41.6008ZM276.96 58.0808H288.12V61.7208H276.96V58.0808ZM275.16 47.0008H289.44V50.8008H275.16V47.0008ZM279.16 63.6408H288.2V75.7208H279.16V71.9608H284.28V67.4008H279.16V63.6408ZM276.84 63.6408H280.76V77.4008H276.84V63.6408Z" fill="white"/>
</svg>
