<svg width="440" height="98" viewBox="0 0 440 98" fill="none" xmlns="http://www.w3.org/2000/svg">
<path fill-rule="evenodd" clip-rule="evenodd" d="M90.5986 1.91815C92.1575 -0.639386 95.8708 -0.639382 97.4297 1.91815L107.151 17.8679H348C364.569 17.8679 378 31.2993 378 47.8679V67.8679C378 70.7371 377.597 73.5123 376.845 76.1399L377.983 76.2336C381.649 76.5357 385.281 77.1716 388.833 78.1335L400.868 81.3933C406.039 82.7939 411.432 83.1801 416.749 82.5305L431.425 80.7378C435.537 80.2355 439.277 83.1615 439.779 87.273C440.281 91.3846 437.356 95.1249 433.244 95.6271L418.568 97.4198C411.328 98.3042 403.986 97.7785 396.946 95.8717L384.911 92.6119C382.24 91.8884 379.509 91.4102 376.751 91.183L367.759 90.4422C362.481 95.0657 355.568 97.8679 348 97.8679H30C13.4315 97.8679 0 84.4364 0 67.8679V47.8679C0 33.1614 10.5821 20.9265 24.5473 18.3622L34.5703 1.91821C36.1292 -0.639325 39.8425 -0.639321 41.4014 1.91822L51.1231 17.8679H80.8769L90.5986 1.91815Z" fill="#89837C"/>
<path d="M90.28 47.28H118.12V51.96H90.28V47.28ZM88.64 59.08H116.6V63.68H88.64V59.08ZM84 71.76H120.16V76.44H84V71.76ZM99.56 40.04H104.56V74.08H99.56V40.04ZM90.32 40.52L95.28 41.64C93.52 47.84 90.6 54 87.48 57.84C86.52 57 84.4 55.6 83.16 54.92C86.32 51.56 88.88 46.04 90.32 40.52ZM161.68 61.36H182.64V77.4H178.08V65.72H166.04V77.56H161.68V61.36ZM179.48 40.04L183.16 43.8C177.28 46.04 169.16 47.28 162.08 47.92C161.88 46.76 161.24 44.88 160.72 43.8C167.52 43.12 175.04 41.8 179.48 40.04ZM169.88 44.52H174.44V63.88H169.88V44.52ZM159.16 51.68H184.68V56.28H159.16V51.68ZM164.8 71.6H179.96V75.92H164.8V71.6ZM149.32 44L152 40.56C154.24 41.68 157.72 43.44 159.44 44.56L156.6 48.44C155 47.24 151.6 45.32 149.32 44ZM147.36 55.08L149.96 51.52C152.24 52.6 155.8 54.32 157.56 55.44L154.88 59.4C153.24 58.28 149.76 56.36 147.36 55.08ZM147.96 73.88C150.12 70.88 153.2 65.88 155.6 61.28L159.12 64.44C157 68.68 154.44 73.24 152.04 77.12L147.96 73.88ZM217.76 54.72H239.4V59.4H217.76V54.72ZM237.84 54.72H242.88C242.88 54.72 242.84 56.2 242.8 56.8C242.36 68.96 241.88 73.72 240.48 75.36C239.48 76.72 238.36 77.08 236.84 77.32C235.44 77.52 233.12 77.48 230.76 77.4C230.68 76 230.04 73.92 229.16 72.56C231.4 72.76 233.48 72.8 234.48 72.8C235.2 72.8 235.64 72.68 236.08 72.24C237.04 71.2 237.48 66.72 237.84 55.6V54.72ZM222.28 40.56L227.48 42.08C224.48 49.04 219.6 55.48 214.56 59.44C213.64 58.4 211.56 56.48 210.4 55.56C215.44 52.24 219.88 46.64 222.28 40.56ZM237.52 40.48C240.04 45.56 245.08 51.4 249.48 54.76C248.16 55.8 246.32 57.76 245.4 59.12C240.88 54.96 235.96 48.48 232.8 42.36L237.52 40.48ZM224.92 56.08H230.12C229.36 65.08 227.64 73.44 215.72 77.88C215.12 76.56 213.72 74.52 212.6 73.48C223.32 69.96 224.28 63.2 224.92 56.08ZM275.92 66.28H312.08V70.36H275.92V66.28ZM291.28 40.04H296.36V45.44H291.28V40.04ZM279.84 59.32H303.8V63.04H279.84V59.32ZM291.36 64.6H296.44V73.24C296.44 75.6 295.76 76.6 293.84 77.16C291.96 77.68 289.32 77.68 285.8 77.68C285.52 76.48 284.8 74.84 284.16 73.76C286.48 73.84 289.64 73.84 290.32 73.84C291.08 73.8 291.36 73.64 291.36 73.04V64.6ZM302.76 59.32H304.04L305.12 59.12L308.12 61.72C304.36 64 299.52 66.2 294.56 67.56C294.04 66.8 292.92 65.6 292.32 65C296.2 63.88 300.64 61.76 302.76 60.2V59.32ZM285.92 52.16V54.4H302.04V52.16H285.92ZM281.12 48.88H307.12V57.68H281.12V48.88ZM276.48 43H311.4V47.04H276.48V43Z" fill="white"/>
</svg>
