<svg width="313" height="338" viewBox="0 0 313 338" fill="none" xmlns="http://www.w3.org/2000/svg">
<path d="M108.182 246.563C132.034 287.876 187.496 300.509 232.061 274.78C276.625 249.051 293.416 194.702 269.563 153.389C258.398 134.05 230.259 156.569 209.601 150.792C186.128 144.228 175.834 122.651 152.13 136.337C126.516 151.125 144.388 165.438 139.568 191.226C136.002 210.305 98.039 228.995 108.182 246.563Z" fill="#ffc079"/>
<circle cx="30.1203" cy="30.1203" r="30.1203" transform="matrix(-0.866025 0.5 0.5 0.866025 241.773 49.937)" fill="#ffc079"/>
<circle cx="30.1203" cy="30.1203" r="30.1203" transform="matrix(-0.866025 0.5 0.5 0.866025 81.001 142.759)" fill="#ffc079"/>
<circle cx="30.1203" cy="30.1203" r="30.1203" transform="matrix(-0.866025 0.5 0.5 0.866025 133.978 45.5905)" fill="#ffc079"/>
</svg>
