<svg width="287" height="287" viewBox="0 0 287 287" fill="none" xmlns="http://www.w3.org/2000/svg">
<path d="M65.3192 119.842C40.5276 150.414 47.1638 196.876 80.1416 223.619C113.119 250.362 159.951 247.257 184.742 216.686C196.347 202.375 170.691 187.34 169.045 169.718C167.174 149.695 180.761 135.395 163.22 121.17C144.266 105.8 138.512 123.794 117.22 127.692C101.467 130.575 75.8615 106.842 65.3192 119.842Z" fill="#DBD2C6"/>
<circle cx="24.8522" cy="24.8522" r="24.8522" transform="matrix(-0.776711 -0.629858 -0.629858 0.776711 256.249 164.739)" fill="#DBD2C6"/>
<circle cx="24.8522" cy="24.8522" r="24.8522" transform="matrix(-0.776711 -0.629858 -0.629858 0.776711 137.276 68.2607)" fill="#DBD2C6"/>
<circle cx="24.8522" cy="24.8522" r="24.8522" transform="matrix(-0.776711 -0.629858 -0.629858 0.776711 227.781 80.3989)" fill="#DBD2C6"/>
</svg>
