<svg width="35" height="35" viewBox="0 0 35 35" fill="none" xmlns="http://www.w3.org/2000/svg">
<path fill-rule="evenodd" clip-rule="evenodd" d="M18.8878 10.2788L21.963 7.20361C23.2963 5.87028 23.963 5.20361 24.7914 5.20361C25.6199 5.20361 26.2865 5.87028 27.6199 7.20361L27.7963 7.38009C29.1297 8.71343 29.7963 9.38009 29.7963 10.2085C29.7963 11.0369 29.1297 11.7036 27.7963 13.0369L24.7532 16.0801C22.3273 14.6757 20.3099 12.6735 18.8878 10.2788ZM17.4335 11.7331L6.68948 22.4771C6.26442 22.9022 6.05189 23.1147 5.91216 23.3758C5.77242 23.6369 5.71348 23.9317 5.59559 24.5211L4.52186 29.8898C4.45534 30.2224 4.42208 30.3887 4.51668 30.4833C4.61129 30.5779 4.7776 30.5446 5.11021 30.4781L10.4789 29.4044L10.4789 29.4044C11.0683 29.2865 11.363 29.2275 11.6241 29.0878C11.8852 28.9481 12.0978 28.7355 12.5228 28.3105L23.2951 17.5382C20.9201 16.0696 18.917 14.0805 17.4335 11.7331Z" fill="#222222"/>
</svg>
